<svg xmlns="http://www.w3.org/2000/svg" width="1200" height="820" viewBox="0 0 1200 820">
<rect width="1200" height="820" fill="#f2e6cf"/>
<rect width="1200" y="384" height="157" fill="#f6d9a8"/>
<circle cx="840" cy="246" r="58" fill="#e9a06a"/>
<path d="M0,820 L0,402.4 Q0.0,402.4 42.9,398.1 Q85.7,393.7 128.6,395.5 Q171.4,397.4 214.3,399.2 Q257.1,401.0 300.0,399.2 Q342.9,397.4 385.7,396.4 Q428.6,395.4 471.4,400.8 Q514.3,406.2 557.1,415.8 Q600.0,425.5 642.9,430.8 Q685.7,436.1 728.6,432.6 Q771.4,429.1 814.3,421.9 Q857.1,414.7 900.0,411.2 Q942.9,407.7 985.7,408.1 Q1028.6,408.5 1071.4,406.8 Q1114.3,405.2 1157.1,399.3 L1200,393.5 L1200,820 Z" fill="#c9b79c"/>
<path d="M0,820 L0,457.2 Q0.0,457.2 42.9,461.0 Q85.7,464.8 128.6,463.3 Q171.4,461.8 214.3,471.4 Q257.1,481.0 300.0,497.5 Q342.9,514.1 385.7,514.7 Q428.6,515.3 471.4,498.7 Q514.3,482.2 557.1,471.3 Q600.0,460.5 642.9,461.9 Q685.7,463.3 728.6,460.8 Q771.4,458.3 814.3,450.1 Q857.1,442.0 900.0,447.1 Q942.9,452.2 985.7,472.2 Q1028.6,492.1 1071.4,503.0 Q1114.3,514.0 1157.1,506.5 L1200,499.1 L1200,820 Z" fill="#b08968"/>
<path d="M0,820 L0,554.4 Q0.0,554.4 42.9,568.8 Q85.7,583.2 128.6,601.9 Q171.4,620.6 214.3,601.2 Q257.1,581.7 300.0,552.7 Q342.9,523.8 385.7,525.5 Q428.6,527.2 471.4,530.2 Q514.3,533.3 557.1,526.6 Q600.0,519.9 642.9,540.3 Q685.7,560.7 728.6,589.4 Q771.4,618.0 814.3,608.4 Q857.1,598.8 900.0,577.7 Q942.9,556.7 985.7,555.9 Q1028.6,555.1 1071.4,544.6 Q1114.3,534.0 1157.1,515.6 L1200,497.1 L1200,820 Z" fill="#8c6a4a"/>
<path d="M0,820 L0,727.9 Q0.0,727.9 42.9,706.9 Q85.7,685.9 128.6,638.1 Q171.4,590.4 214.3,601.3 Q257.1,612.2 300.0,622.0 Q342.9,631.8 385.7,635.6 Q428.6,639.4 471.4,683.0 Q514.3,726.5 557.1,724.9 Q600.0,723.3 642.9,680.2 Q685.7,637.1 728.6,634.7 Q771.4,632.3 814.3,621.2 Q857.1,610.1 900.0,601.2 Q942.9,592.2 985.7,641.3 Q1028.6,690.3 1071.4,708.4 Q1114.3,726.5 1157.1,701.7 L1200,676.8 L1200,820 Z" fill="#5b4632"/>
</svg>